<svg width="26" height="42" viewBox="0 0 26 42" fill="none" xmlns="http://www.w3.org/2000/svg">
<g clip-path="url(#clip0_2748_71286)">
<path d="M7.68575 39.4875C7.68575 39.7836 7.6319 40.0475 7.52421 40.279C7.41652 40.5052 7.26575 40.6963 7.0719 40.8525C6.87806 41.0032 6.64383 41.1163 6.36921 41.1917C6.09459 41.2725 5.78767 41.3128 5.44844 41.3128H3.17075V35.2067H5.18998C5.53459 35.2067 5.84152 35.239 6.11075 35.3036C6.38536 35.3682 6.6169 35.4705 6.80536 35.6105C6.99383 35.7505 7.13921 35.9309 7.24152 36.1517C7.34383 36.3671 7.39498 36.6255 7.39498 36.9271C7.39498 37.164 7.33306 37.3848 7.20921 37.5894C7.09075 37.794 6.9319 37.9636 6.73267 38.0982C7.02344 38.2328 7.25498 38.4267 7.42729 38.6798C7.5996 38.9275 7.68575 39.1967 7.68575 39.4875ZM6.31267 36.919C6.31267 36.6444 6.21844 36.4451 6.02998 36.3213C5.84152 36.1921 5.56152 36.1275 5.18998 36.1275H4.25306V37.7186H5.24652C5.58575 37.7186 5.8469 37.6513 6.02998 37.5167C6.21844 37.3821 6.31267 37.1828 6.31267 36.919ZM6.60344 39.4955C6.60344 39.2478 6.5119 39.0432 6.32883 38.8817C6.14575 38.7201 5.86306 38.6394 5.48075 38.6394H4.25306V40.3921H5.44844C5.80921 40.3921 6.0919 40.314 6.29652 40.1578C6.50113 40.0017 6.60344 39.7809 6.60344 39.4955ZM12.4075 39.3259H9.33016C9.36247 39.6759 9.47016 39.9586 9.65324 40.174C9.8417 40.384 10.1082 40.489 10.4529 40.489C10.679 40.489 10.8863 40.4405 11.0748 40.3436C11.2686 40.2467 11.4275 40.0878 11.5513 39.8671L12.3348 40.4567C12.1194 40.7636 11.8448 40.9952 11.5109 41.1513C11.1771 41.3128 10.8244 41.3936 10.4529 41.3936C10.1029 41.3936 9.79054 41.3398 9.51593 41.2321C9.2467 41.1244 9.01785 40.9682 8.82939 40.7636C8.64093 40.559 8.49554 40.314 8.39324 40.0286C8.29631 39.7378 8.24785 39.4094 8.24785 39.0432C8.24785 38.6932 8.29631 38.3755 8.39324 38.0902C8.49554 37.7994 8.63824 37.5517 8.82131 37.3471C9.00978 37.1371 9.23324 36.9755 9.4917 36.8625C9.75554 36.7494 10.049 36.6928 10.3721 36.6928C10.7005 36.6928 10.9913 36.7494 11.2444 36.8625C11.4975 36.9755 11.7102 37.1371 11.8825 37.3471C12.0548 37.5517 12.184 37.7994 12.2702 38.0902C12.3617 38.3755 12.4075 38.6932 12.4075 39.0432V39.3259ZM11.3252 38.4536C11.2982 38.1898 11.1959 37.9825 11.0182 37.8317C10.8405 37.6755 10.6252 37.5975 10.3721 37.5975C10.119 37.5975 9.90362 37.6755 9.72593 37.8317C9.55362 37.9825 9.44593 38.1898 9.40285 38.4536H11.3252ZM15.5008 41.1917C15.377 41.2563 15.237 41.3075 15.0808 41.3452C14.9246 41.3828 14.782 41.4017 14.6527 41.4017C14.4643 41.4017 14.292 41.3802 14.1358 41.3371C13.985 41.294 13.8531 41.2186 13.74 41.1109C13.6323 41.0086 13.5489 40.8713 13.4896 40.699C13.4304 40.5267 13.4008 40.3113 13.4008 40.0528V37.6782H12.6173V36.7736H13.4008V35.6105H14.467V36.7736H15.3716V37.6782H14.467V40.0528C14.467 40.2252 14.4939 40.3409 14.5477 40.4002C14.607 40.4594 14.6716 40.4917 14.7416 40.4971C14.8277 40.5025 14.9246 40.4944 15.0323 40.4728C15.14 40.4459 15.2477 40.4002 15.3554 40.3355L15.5008 41.1917ZM19.6077 41.3128H18.5577V40.9332H18.4769C18.4284 40.9925 18.3638 41.049 18.283 41.1028C18.2023 41.1621 18.1107 41.2132 18.0084 41.2563C17.9115 41.2994 17.8065 41.3317 17.6934 41.3532C17.5857 41.3802 17.478 41.3936 17.3704 41.3936C17.1119 41.3936 16.8777 41.3586 16.6677 41.2886C16.4577 41.224 16.28 41.1298 16.1346 41.0059C15.9892 40.8821 15.8761 40.734 15.7954 40.5617C15.7146 40.3894 15.6742 40.2009 15.6742 39.9963C15.6742 39.754 15.728 39.5359 15.8357 39.3421C15.9488 39.1482 16.1077 38.9867 16.3123 38.8575C16.5169 38.7228 16.7646 38.6205 17.0554 38.5505C17.3461 38.4805 17.6719 38.4455 18.0327 38.4455H18.5415V38.3001C18.5415 38.0794 18.4715 37.9071 18.3315 37.7832C18.1915 37.6594 17.9869 37.5975 17.7177 37.5975C17.4484 37.5975 17.2357 37.6594 17.0796 37.7832C16.9288 37.9017 16.8534 38.0605 16.8534 38.2598H15.7873C15.7873 38.0498 15.8304 37.8505 15.9165 37.6621C16.008 37.4736 16.1373 37.3094 16.3042 37.1694C16.4765 37.024 16.6811 36.9082 16.918 36.8221C17.1604 36.7359 17.4323 36.6928 17.7338 36.6928C18.0084 36.6928 18.2588 36.7278 18.485 36.7978C18.7165 36.8625 18.9157 36.9621 19.0827 37.0967C19.2496 37.2259 19.3788 37.3928 19.4704 37.5975C19.5619 37.7967 19.6077 38.0336 19.6077 38.3082V41.3128ZM18.5415 39.2855H18.0892C17.6692 39.2855 17.338 39.3448 17.0957 39.4632C16.8588 39.5763 16.7404 39.7405 16.7404 39.9559C16.7404 40.1121 16.7996 40.2413 16.918 40.3436C17.0419 40.4405 17.2088 40.489 17.4188 40.489C17.6719 40.489 17.8954 40.4271 18.0892 40.3032C18.2831 40.174 18.4338 40.0286 18.5415 39.8671V39.2855Z" fill="white"/>
<path d="M0.0843863 32.0146V2.50444C0.0843863 2.50444 -0.169643 0.396061 2.55841 0.87565L22.2162 4.34498C22.2162 4.34498 25.1155 4.65083 25.1155 8.12197V36.3544C25.1155 36.3544 16.6773 34.8559 12.5981 29.1913C12.5999 29.1823 8.47288 32.2154 0.0843863 32.0146Z" fill="white"/>
<path d="M20.7507 19.4939V8.71127L3.71973 5.78125V27.5908C8.36957 27.6903 8.97519 26.5049 8.97519 26.5049V21.7778L15.6462 23.0211C21.0766 24.2536 20.7507 19.4939 20.7507 19.4939ZM15.1879 17.3765L9.03225 16.325V11.8512L15.1879 12.9045V17.3765Z" fill="#3233FF"/>
<path d="M20.7507 19.4939V8.71127L3.71973 5.78125V27.5908C8.36957 27.6903 8.97519 26.5049 8.97519 26.5049V21.7778L15.6462 23.0211C21.0766 24.2536 20.7507 19.4939 20.7507 19.4939ZM15.1879 17.3765L9.03225 16.325V11.8512L15.1879 12.9045V17.3765Z" fill="#3233FF"/>
</g>
<defs>
<clipPath id="clip0_2748_71286">
<rect width="25.0385" height="42" fill="white" transform="translate(0.0771484 0.807617)"/>
</clipPath>
</defs>
</svg>
